<?xml version="1.0" encoding="utf-8"?>
<!-- Generator: Adobe Illustrator 27.0.0, SVG Export Plug-In . SVG Version: 6.00 Build 0)  -->
<svg version="1.1" id="Layer_1" xmlns="http://www.w3.org/2000/svg" xmlns:xlink="http://www.w3.org/1999/xlink" x="0px" y="0px"
	 viewBox="0 0 462 441.1" style="enable-background:new 0 0 462 441.1;" xml:space="preserve">
<style type="text/css">
	.st0{fill:#3F64FA;}
	.st1{fill:#FFFFFF;}
	.st2{opacity:0.1;fill:#3F64FA;enable-background:new    ;}
	.st3{opacity:5.000000e-02;fill:#3F64FA;enable-background:new    ;}
	.st4{opacity:3.000000e-02;fill:#3F64FA;enable-background:new    ;}
	.st5{fill:url(#SVGID_1_);}
	.st6{fill-rule:evenodd;clip-rule:evenodd;fill:#D2DCEE;}
	.st7{fill-rule:evenodd;clip-rule:evenodd;fill:#EFF4FC;}
	.st8{fill-rule:evenodd;clip-rule:evenodd;fill:#1E60D1;}
	.st9{fill-rule:evenodd;clip-rule:evenodd;fill:#DFE9FA;}
	.st10{fill:url(#SVGID_00000094585072196645142550000001241898215783121052_);}
	.st11{fill:url(#SVGID_00000065044487835322857040000010067369314197997202_);}
	.st12{fill:url(#SVGID_00000150090256735922191050000016174910015620297378_);}
	.st13{fill-rule:evenodd;clip-rule:evenodd;fill:#A8C6FB;}
	.st14{fill-rule:evenodd;clip-rule:evenodd;fill:#DCE9FF;}
	.st15{fill-rule:evenodd;clip-rule:evenodd;fill:#725DF4;}
	.st16{fill-rule:evenodd;clip-rule:evenodd;fill:#FEFEFE;}
	.st17{fill-rule:evenodd;clip-rule:evenodd;fill:#F7F7F7;}
	.st18{fill-rule:evenodd;clip-rule:evenodd;fill:#C0D5FA;}
	.st19{fill:#C0D5FA;}
	.st20{fill-rule:evenodd;clip-rule:evenodd;fill:#8BADE9;}
	.st21{fill-rule:evenodd;clip-rule:evenodd;fill:url(#SVGID_00000049941938712448867800000010827078114354220964_);}
	.st22{fill-rule:evenodd;clip-rule:evenodd;fill:#CCCCCC;}
	.st23{fill-rule:evenodd;clip-rule:evenodd;fill:#BBD2FA;}
	.st24{fill-rule:evenodd;clip-rule:evenodd;fill:#5E95F4;}
</style>
<g>
	<g>
		<g>
			<circle class="st0" cx="231" cy="220.5" r="71.6"/>
			<circle class="st1" cx="231" cy="220.5" r="34.6"/>
		</g>
		<circle class="st2" cx="231" cy="220.5" r="133.8"/>
		<circle class="st3" cx="231" cy="220.5" r="171.9"/>
		
			<ellipse transform="matrix(0.7071 -0.7071 0.7071 0.7071 -88.2827 227.9346)" class="st4" cx="231" cy="220.5" rx="218.5" ry="218.5"/>
		
			<ellipse transform="matrix(0.7071 -0.7071 0.7071 0.7071 -88.2868 227.9346)" class="st2" cx="231" cy="220.5" rx="100.1" ry="100.1"/>
		
			<linearGradient id="SVGID_1_" gradientUnits="userSpaceOnUse" x1="437.93" y1="324.1273" x2="557.068" y2="305.2273" gradientTransform="matrix(0.7071 -0.7071 -0.7071 -0.7071 112.063 787.326)">
			<stop  offset="0" style="stop-color:#715CF3"/>
			<stop  offset="1" style="stop-color:#5C99F3"/>
		</linearGradient>
		<circle class="st5" cx="231" cy="220.5" r="71.6"/>
		<circle class="st1" cx="231" cy="220.5" r="34.6"/>
	</g>
	<g>
		<path class="st6" d="M237.5,293.8c116.1,0,210.2,4.4,210.2,9.9c0,5.5-94.1,9.9-210.2,9.9s-210.2-4.4-210.2-9.9
			C27.3,298.2,121.4,293.8,237.5,293.8z"/>
		<path class="st7" d="M96.4,137.2h298.9c9.9,0,18,8.1,18,18v134.3c0,9.9-8.1,18-18,18H96.4c-9.9,0-18-8.1-18-18V155.2
			C78.5,145.3,86.6,137.2,96.4,137.2z"/>
		<path class="st8" d="M90.1,136.2h311.5c3.7,0,7,1.5,9.4,3.9s3.9,5.8,3.9,9.5v144.5c0,3.7-1.5,7-3.9,9.5c-2.4,2.4-5.8,3.9-9.4,3.9
			H90.1c-3.7,0-7-1.5-9.4-3.9c-2.4-2.4-3.9-5.8-3.9-9.5V149.6c0-3.7,1.5-7,3.9-9.5C83.1,137.7,86.4,136.2,90.1,136.2z M401.6,139.9
			H90.1c-2.6,0-5.1,1.1-6.8,2.8c-1.8,1.8-2.8,4.2-2.8,6.8v144.5c0,2.6,1.1,5.1,2.8,6.8c1.8,1.8,4.1,2.8,6.8,2.8h311.5
			c2.6,0,5.1-1.1,6.8-2.8c1.8-1.8,2.8-4.2,2.8-6.8V149.6c0-2.7-1.1-5.1-2.8-6.8C406.7,141,404.3,139.9,401.6,139.9z"/>
		<path class="st9" d="M90.1,149.5L90.1,149.5L90.1,149.5L90,294.1l0,0l0,0h311.5l0,0l0,0V149.6l0,0l0,0H90.1z M87.4,146.9
			c0.7-0.7,1.6-1.1,2.7-1.1h311.5c1,0,2,0.4,2.7,1.1c0.7,0.7,1.1,1.6,1.1,2.7V294c0,1-0.4,2-1.1,2.7c-0.7,0.7-1.6,1.1-2.7,1.1H90.1
			c-1,0-2-0.4-2.7-1.1c-0.7-0.7-1.1-1.6-1.1-2.7V149.5C86.3,148.5,86.7,147.6,87.4,146.9z"/>
		
			<linearGradient id="SVGID_00000041261101688894571990000010874806562742516360_" gradientUnits="userSpaceOnUse" x1="101.9732" y1="219.84" x2="134.9321" y2="218.313" gradientTransform="matrix(1 0 0 -1 0 441.068)">
			<stop  offset="0" style="stop-color:#715CF3"/>
			<stop  offset="1" style="stop-color:#5C99F3"/>
		</linearGradient>
		<path style="fill:url(#SVGID_00000041261101688894571990000010874806562742516360_);" d="M134.3,155.6H95.6v132.6h38.7V155.6z"/>
		
			<linearGradient id="SVGID_00000052064065751315613880000014892272889820886198_" gradientUnits="userSpaceOnUse" x1="147.7863" y1="219.84" x2="180.7463" y2="218.313" gradientTransform="matrix(1 0 0 -1 0 441.068)">
			<stop  offset="0" style="stop-color:#715CF3"/>
			<stop  offset="1" style="stop-color:#5C99F3"/>
		</linearGradient>
		<path style="fill:url(#SVGID_00000052064065751315613880000014892272889820886198_);" d="M180.1,155.6h-38.7v132.6h38.7V155.6z"/>
		
			<linearGradient id="SVGID_00000165941254079438702280000007226092887573246867_" gradientUnits="userSpaceOnUse" x1="193.8512" y1="219.84" x2="226.8102" y2="218.313" gradientTransform="matrix(1 0 0 -1 0 441.068)">
			<stop  offset="0" style="stop-color:#715CF3"/>
			<stop  offset="1" style="stop-color:#5C99F3"/>
		</linearGradient>
		<path style="fill:url(#SVGID_00000165941254079438702280000007226092887573246867_);" d="M226.2,155.6h-38.7v132.6h38.7V155.6z"/>
		<path class="st13" d="M166.2,178.5l-49.5,45.9l-58.5-63.3l49.5-45.9c21.2-19.7,46.4-31.3,67.8-38.2c24.2-7.8,43.5-9.5,46.8-9.7
			l0.3,0h0.2c0,0-2.8,20.5-13.3,46.3C200.9,134.4,187.4,158.8,166.2,178.5z"/>
		<path class="st14" d="M147.5,158.3l-49.5,45.9l-21.6-23.3L126,135c19.2-17.9,38.8-32.4,55.2-43.4c22-14.7,38.4-23.1,41-24.4
			l0.4-0.2l-0.1,0.1c-0.9,1.6-10.6,17.7-27.5,39.3C182.8,122.1,166.8,140.5,147.5,158.3z"/>
		<path class="st15" d="M209.4,113.5c-5.1-1.4-10-3.8-14.5-7c-2.7-1.9-5.3-4.2-7.6-6.7c-2.4-2.6-4.4-5.3-6.1-8.2
			c-2.8-4.6-4.7-9.6-5.7-14.7c24.2-7.8,43.5-9.5,46.8-9.7l0.4-0.2l-0.1,0.1h0.2C222.7,67.2,219.9,87.7,209.4,113.5z"/>
		<path class="st13" d="M194.9,106.5c-2.7-1.9-5.3-4.2-7.6-6.7c-2.4-2.6-4.4-5.3-6.1-8.2c22-14.7,38.4-23.1,41-24.4l0.4-0.2
			l-0.1,0.1C221.5,68.8,211.9,85,194.9,106.5z"/>
		<path class="st7" d="M172.3,143.7c-8.6,8-22.1,7.5-30.1-1.2s-7.5-22.2,1.2-30.1c8.6-8,22.1-7.5,30.1,1.2
			C181.4,122.2,180.9,135.7,172.3,143.7z"/>
		<path class="st15" d="M170.6,116.2c-6.5-7.1-17.6-7.5-24.6-0.9c-7,6.5-7.5,17.6-0.9,24.7c6.5,7.1,17.6,7.5,24.6,0.9
			C176.7,134.3,177.1,123.3,170.6,116.2z M139.3,145.2c-9.4-10.2-8.8-26.2,1.4-35.6c10.2-9.4,26.1-8.8,35.6,1.4
			c9.4,10.2,8.8,26.2-1.4,35.6C164.7,156,148.7,155.4,139.3,145.2z"/>
		<path class="st16" d="M170.1,135c-3.5,3.2-8.8,3-12-0.5c-3.2-3.5-3-8.8,0.5-12.1c3.5-3.2,8.8-3,12,0.5
			C173.7,126.4,173.5,131.8,170.1,135z"/>
		<path class="st15" d="M124.7,235.2c21.8-20.2,35.4-40.9,30.5-46.3c-4.9-5.3-26.6,6.7-48.4,26.9L124.7,235.2z"/>
		<path class="st13" d="M119.9,230c21.8-20.2,37.6-38.6,35.4-41c-2.3-2.4-21.7,12-43.5,32.2L119.9,230z"/>
		<path class="st13" d="M106.4,218.7l-13.8,21.9l6.8-3.3l-6.5,11.6l11.3-6.4l-3.5,6.8l21.2-13.9L106.4,218.7z"/>
		<path class="st14" d="M108.4,220.9L98.3,237l5-2.4l-4.8,8.5l8.3-4.7l-2.6,5l15.7-10.2L108.4,220.9z"/>
		<path class="st15" d="M82.9,220.5c28.7-26.6,46.6-53.9,40.2-60.9c-6.5-7-35,8.8-63.7,35.4L82.9,220.5z"/>
		<path class="st13" d="M76.5,213.6c28.7-26.6,49.5-50.8,46.6-54c-3-3.2-28.6,15.8-57.3,42.4L76.5,213.6z"/>
		<path class="st13" d="M58.8,198.7l-18.2,28.9l9-4.3L41,238.5l14.8-8.4l-4.7,9l28-18.3L58.8,198.7z"/>
		<path class="st14" d="M61.5,201.6l-13.4,21.3l6.6-3.2l-6.3,11.2l10.9-6.2l-3.4,6.6l20.6-13.5L61.5,201.6z"/>
		<path class="st15" d="M66,171.7c21.8-20.3,35.4-40.9,30.5-46.3c-4.9-5.3-26.6,6.7-48.4,26.9L66,171.7z"/>
		<path class="st13" d="M61.2,166.4c21.8-20.2,37.6-38.6,35.4-41c-2.3-2.4-21.7,12-43.5,32.2L61.2,166.4z"/>
		<path class="st13" d="M47.7,155.2l-13.8,21.9l6.8-3.3l-6.5,11.6l11.3-6.4l-3.5,6.8l21.2-13.9L47.7,155.2z"/>
		<path class="st14" d="M49.7,157.4l-10.2,16.2l5-2.4l-4.8,8.5l8.3-4.7l-2.6,5.1l15.7-10.2L49.7,157.4z"/>
		<path class="st17" d="M311,156.3c34.4-1.2,63.2,25.7,64.5,60.1c1.2,34.4-25.6,63.4-60,64.6c-34.4,1.2-63.2-25.7-64.5-60.1
			C249.7,186.5,276.6,157.5,311,156.3z"/>
		<path class="st18" d="M312.1,188.2c8.4-0.3,16.1,2.8,21.8,8.1c5.7,5.3,9.4,12.8,9.7,21.2c0.3,8.4-2.8,16.2-8.1,21.9
			c-5.3,5.7-12.8,9.4-21.2,9.7c-8.4,0.3-16.1-2.8-21.8-8.1c-5.7-5.3-9.4-12.8-9.7-21.2c-0.3-8.4,2.8-16.2,8.1-21.9
			C296.2,192.2,303.7,188.5,312.1,188.2z M333.4,196.9c-5.6-5.2-13.1-8.3-21.3-8c-8.2,0.3-15.5,3.9-20.7,9.5
			c-5.2,5.6-8.2,13.1-7.9,21.3c0.3,8.2,3.9,15.5,9.4,20.7c5.6,5.2,13.1,8.3,21.3,8s15.5-3.9,20.7-9.5c5.2-5.6,8.2-13.1,7.9-21.3
			C342.6,209.4,339,202.1,333.4,196.9z"/>
		<path class="st18" d="M311.9,183.3c19.5-0.7,35.9,14.6,36.6,34.1c0.4,9.8-3.3,18.8-9.4,25.4c-6.2,6.6-14.8,10.9-24.6,11.3
			c-9.7,0.4-18.7-3.3-25.3-9.5c-6.6-6.2-10.9-14.9-11.3-24.7C277.1,200.4,292.4,184,311.9,183.3z M347.8,217.4
			c-0.7-19.1-16.7-34.1-35.8-33.4c-19.1,0.7-34,16.8-33.3,35.9c0.3,9.6,4.5,18.1,11,24.1c6.5,6.1,15.3,9.6,24.8,9.3
			c9.6-0.3,18-4.5,24.1-11C344.6,235.8,348.1,227,347.8,217.4z"/>
		<path class="st19" d="M312.3,183.9l-0.7,0l0.2,4.4l0.7,0L312.3,183.9z"/>
		<path class="st19" d="M329.2,187.7l-2.1,3.9l0.6,0.3l2.1-3.9L329.2,187.7z"/>
		<path class="st19" d="M342.4,199.9l-3.7,2.3l0.4,0.6l3.7-2.3L342.4,199.9z"/>
		<path class="st19" d="M347.9,217.1l-4.4,0.2l0,0.7l4.4-0.2L347.9,217.1z"/>
		<path class="st19" d="M340.1,232.6l-0.3,0.6l3.9,2.1l0.3-0.6L340.1,232.6z"/>
		<path class="st19" d="M329.6,244.2l-0.6,0.4l2.3,3.7l0.6-0.4L329.6,244.2z"/>
		<path class="st19" d="M314.6,249l-0.7,0l0.2,4.4l0.7,0L314.6,249z"/>
		<path class="st19" d="M298.7,245.3l-2.1,3.9l0.6,0.3l2.1-3.9L298.7,245.3z"/>
		<path class="st19" d="M287.3,234.5l-3.7,2.3l0.4,0.6l3.7-2.3L287.3,234.5z"/>
		<path class="st19" d="M282.9,219.4l-4.4,0.2l0,0.7l4.4-0.2L282.9,219.4z"/>
		<path class="st19" d="M282.7,202.1l-0.3,0.6l3.9,2.1l0.3-0.6L282.7,202.1z"/>
		<path class="st19" d="M295,189l-0.6,0.4l2.3,3.7l0.6-0.4L295,189z"/>
		<path class="st18" d="M311.4,168.7c13.8-0.5,26.4,4.7,35.8,13.4c9.4,8.7,15.4,21,15.9,34.8c0.5,13.8-4.7,26.5-13.3,35.9
			c-8.7,9.4-21,15.4-34.7,15.9c-13.8,0.5-26.4-4.7-35.8-13.4c-9.4-8.7-15.4-21-15.9-34.8c-0.5-13.8,4.7-26.5,13.3-35.9
			C285.4,175.2,297.6,169.2,311.4,168.7z M346.9,182.3c-9.3-8.6-21.9-13.8-35.5-13.3c-13.7,0.5-25.8,6.5-34.5,15.8
			c-8.6,9.3-13.7,21.9-13.2,35.6c0.5,13.7,6.5,25.9,15.8,34.5c9.3,8.6,21.9,13.8,35.5,13.3c13.7-0.5,25.8-6.5,34.5-15.8
			c8.6-9.3,13.7-21.9,13.2-35.6C362.2,203.2,356.2,191,346.9,182.3z"/>
		<path class="st18" d="M311.3,166.2c14.5-0.5,27.7,4.9,37.5,14c9.8,9.2,16.1,22,16.7,36.5c0.5,14.5-4.9,27.8-14,37.6
			c-9.1,9.8-22,16.2-36.5,16.7s-27.7-4.9-37.5-14c-9.8-9.2-16.1-22-16.7-36.5c-0.5-14.5,4.9-27.8,14-37.6
			C284,173.1,296.9,166.7,311.3,166.2z M348.6,180.5c-9.7-9.1-22.9-14.5-37.3-13.9c-14.3,0.5-27.1,6.8-36.2,16.6
			c-9.1,9.8-14.4,23-13.9,37.4c0.5,14.4,6.8,27.2,16.5,36.3c9.7,9.1,22.9,14.5,37.3,13.9c14.3-0.5,27.1-6.8,36.2-16.6
			c9.1-9.8,14.4-23,13.9-37.4C364.6,202.4,358.4,189.6,348.6,180.5z"/>
		<path class="st20" d="M351.9,213.1c0.1,0,0.3,0,0.6,0c0.2,0,0.4,0,0.5,0l1.3-0.1c0.1,0,0.2,0.1,0.2,0.2c0,0.1-0.1,0.2-0.1,0.2
			c-0.2,0-0.4,0.1-0.4,0.2c-0.1,0.1-0.1,0.3-0.1,0.6c0,0.3,0,1,0,2.2c0.1,1.3,0.1,2.3,0.1,3c0.1,0.7,0.1,1.1,0.2,1.3
			c0.1,0.2,0.2,0.3,0.4,0.2c0.1,0,0.2,0.1,0.2,0.2c0,0.1-0.1,0.2-0.2,0.2c0,0-0.1,0-0.2,0c-0.5,0-0.9-0.1-1.1-0.1
			c-0.4,0-0.7,0.1-0.9,0.1c-0.1,0-0.2,0-0.2,0c-0.1,0-0.2-0.1-0.2-0.2c0-0.1,0-0.1,0.1-0.2c0.2-0.1,0.4-0.2,0.4-0.3
			c0.1-0.1,0.1-0.5,0.1-1.1c0-0.6,0-1.4-0.1-2.6c-0.1-1.3-0.1-2.1-0.1-2.5c-0.1-0.4-0.1-0.7-0.2-0.8c-0.1-0.1-0.2-0.1-0.4-0.2
			c-0.1,0-0.2-0.1-0.2-0.2C351.8,213.2,351.9,213.1,351.9,213.1z M355.2,213c0.1,0,0.3,0,0.6,0c0.2,0,0.4,0,0.5,0l1.3-0.1
			c0.1,0,0.2,0.1,0.2,0.2c0,0.1,0,0.2-0.1,0.2c-0.2,0-0.4,0.1-0.4,0.2c-0.1,0.1-0.1,0.3-0.1,0.6c0,0.3,0,1,0,2.2
			c0.1,1.3,0.1,2.3,0.1,3c0.1,0.7,0.1,1.1,0.2,1.3c0.1,0.2,0.2,0.3,0.4,0.2c0.1,0,0.2,0.1,0.2,0.2c0,0.1-0.1,0.2-0.2,0.2
			c0,0-0.1,0-0.2,0c-0.5,0-0.9-0.1-1.1-0.1c-0.4,0-0.7,0.1-0.9,0.1c-0.1,0-0.2,0-0.2,0c-0.1,0-0.2-0.1-0.2-0.2c0-0.1,0-0.1,0.1-0.2
			c0.2-0.1,0.4-0.2,0.4-0.3c0.1-0.1,0.1-0.5,0.1-1.1s0-1.5-0.1-2.7c-0.1-1.3-0.1-2.1-0.1-2.5c-0.1-0.4-0.1-0.7-0.2-0.8
			c-0.1-0.1-0.2-0.1-0.4-0.2c-0.1,0-0.2-0.1-0.2-0.2C355,213.1,355.1,213,355.2,213z M358.4,212.9c0.1,0,0.3,0,0.6,0
			c0.2,0,0.4,0,0.5,0l1.3-0.1c0.1,0,0.2,0.1,0.2,0.2c0,0.1-0.1,0.2-0.1,0.2c-0.2,0-0.4,0.1-0.4,0.2c-0.1,0.1-0.1,0.3-0.1,0.6
			c0,0.3,0,1,0,2.2c0.1,1.3,0.1,2.3,0.1,3c0.1,0.7,0.1,1.1,0.2,1.3c0.1,0.2,0.2,0.3,0.4,0.2c0.1,0,0.2,0.1,0.2,0.2
			c0,0.1-0.1,0.2-0.2,0.2c0,0-0.1,0-0.2,0c-0.5,0-0.9-0.1-1.1-0.1c-0.4,0-0.7,0.1-0.9,0.1c-0.1,0-0.2,0-0.2,0
			c-0.1,0-0.2-0.1-0.2-0.2c0-0.1,0-0.1,0.1-0.2c0.2-0.1,0.4-0.2,0.4-0.3c0.1-0.1,0.1-0.5,0.1-1.1c0-0.6,0-1.5-0.1-2.6
			c-0.1-1.3-0.1-2.1-0.1-2.5c-0.1-0.4-0.1-0.7-0.2-0.8c-0.1-0.1-0.2-0.1-0.4-0.2c-0.1,0-0.2-0.1-0.2-0.2
			C358.3,212.9,358.3,212.9,358.4,212.9z M313.5,266.3h-0.3l-0.9-2.9c-0.2-0.7-0.5-1.6-0.8-2.7c-0.3-1.1-0.5-1.7-0.6-1.9
			c-0.1-0.2-0.2-0.3-0.3-0.3c-0.1-0.1-0.2-0.1-0.3-0.1c-0.1,0-0.1-0.1-0.1-0.2c0-0.1,0.1-0.2,0.1-0.2l1.1,0c0.4,0,0.8-0.1,1.1-0.1
			c0.1,0,0.2,0,0.2,0c0.1,0,0.2,0.1,0.2,0.2c0,0.1-0.1,0.1-0.2,0.2c-0.3,0.1-0.4,0.3-0.4,0.6c0,0.6,0.4,2.3,1.3,5
			c0.2-0.9,0.4-1.8,0.6-2.8l0.3-1.7c0-0.2,0.1-0.4,0.1-0.6c0-0.2-0.1-0.4-0.1-0.5c-0.1-0.1-0.2-0.2-0.3-0.2c-0.1,0-0.2-0.1-0.2-0.2
			c0-0.1,0.1-0.2,0.1-0.2c0.1,0,0.2,0,0.3,0c0.2,0,0.4,0,0.6,0c0.2,0,0.4,0,0.5-0.1c0.1,0,0.2,0,0.3,0c0.1,0,0.1,0.1,0.1,0.2
			c0,0.1,0,0.2-0.1,0.2c-0.1,0-0.3,0.1-0.4,0.2c-0.1,0.1-0.2,0.3-0.3,0.6c-0.1,0.3-0.2,0.8-0.4,1.8l-0.6,2.8
			C313.8,265,313.6,265.9,313.5,266.3z M316.4,257.9c0.1,0,0.3,0,0.6,0c0.2,0,0.4,0,0.5,0l1.3-0.1c0.1,0,0.2,0.1,0.2,0.2
			s-0.1,0.2-0.1,0.2c-0.2,0.1-0.4,0.1-0.4,0.2c-0.1,0.1-0.1,0.3-0.1,0.6c0,0.3,0,1,0,2.2c0.1,1.3,0.1,2.3,0.1,3
			c0.1,0.7,0.1,1.1,0.2,1.3c0.1,0.2,0.2,0.3,0.4,0.2c0.1,0,0.2,0.1,0.2,0.2c0,0.1-0.1,0.2-0.2,0.2c0,0-0.1,0-0.2,0
			c-0.5,0-0.9-0.1-1.1-0.1c-0.4,0-0.7,0.1-0.9,0.1c-0.1,0-0.2,0-0.2,0c-0.1,0-0.2-0.1-0.2-0.2c0-0.1,0-0.1,0.1-0.2
			c0.2-0.1,0.4-0.2,0.4-0.3c0.1-0.1,0.1-0.5,0.1-1.1s0-1.5-0.1-2.7c-0.1-1.3-0.1-2.1-0.1-2.5c-0.1-0.4-0.1-0.7-0.2-0.8
			c-0.1-0.1-0.2-0.1-0.4-0.2c-0.1,0-0.2-0.1-0.2-0.2C316.3,257.9,316.3,257.9,316.4,257.9z M308.6,174.2c0.6-1.1,0.8-1.8,0.8-2.1
			c0-0.1,0-0.3-0.1-0.3c-0.1-0.1-0.2-0.1-0.4-0.2c-0.1,0-0.1-0.1-0.1-0.2c0-0.1,0.1-0.2,0.1-0.2c0.1,0,0.2,0,0.3,0
			c0.2,0,0.4,0,0.5,0c0.2,0,0.4,0,0.8-0.1c0.1,0,0.3,0,0.3,0c0.1,0,0.2,0.1,0.2,0.2c0,0.1-0.1,0.2-0.1,0.2c-0.2,0-0.4,0.1-0.6,0.3
			c-0.2,0.2-0.4,0.4-0.5,0.7c-0.1,0.3-0.5,1-1,2.1c0.3,0.8,0.7,1.6,1.2,2.5c0.4,0.9,0.8,1.4,1,1.6c0.2,0.2,0.4,0.3,0.6,0.3
			c0.1,0,0.2,0.1,0.2,0.2c0,0.1-0.1,0.2-0.2,0.2h-1.5c-0.2,0-0.4,0-0.6,0.1c-0.2,0-0.3,0-0.3,0c-0.1,0-0.2,0-0.2,0c0,0-0.1,0-0.1,0
			c-0.1,0-0.1-0.1-0.1-0.2c0-0.1,0-0.2,0.1-0.2c0.3-0.1,0.4-0.2,0.4-0.5c0-0.3-0.4-1.2-1.1-2.6c-0.7,1.4-1,2.3-1,2.5
			c0,0.3,0.2,0.5,0.7,0.6c0.1,0,0.1,0.1,0.1,0.1c0,0.1-0.1,0.2-0.1,0.2c-0.1,0-0.2,0-0.4,0c-0.3,0-0.5,0-0.7,0c-0.2,0-0.4,0-0.5,0.1
			c-0.2,0-0.3,0.1-0.3,0.1c-0.2,0-0.3-0.1-0.3-0.2c0-0.1,0-0.1,0.1-0.2c0.3-0.1,0.4-0.2,0.6-0.3c0.1-0.1,0.3-0.4,0.5-0.8
			c0.2-0.4,0.6-1.2,1.1-2.4c-0.8-1.7-1.3-2.7-1.6-3.2c-0.3-0.4-0.6-0.7-0.9-0.8c-0.1,0-0.2-0.1-0.2-0.2c0-0.1,0.1-0.2,0.1-0.2
			c0.1,0,0.1,0,0.2,0c0.2,0,0.6,0,1.1,0c0.3,0,0.5,0,0.9-0.1c0.2,0,0.3,0,0.4,0c0.1,0,0.2,0.1,0.2,0.2c0,0.1-0.1,0.2-0.2,0.2
			c-0.1,0-0.2,0.1-0.3,0.1c-0.1,0.1-0.2,0.2-0.2,0.3s0.1,0.3,0.2,0.6C307.9,172.9,308.2,173.4,308.6,174.2z M311.9,171.1
			c0.1,0,0.3,0,0.6,0c0.2,0,0.4,0,0.5,0l1.3-0.1c0.1,0,0.2,0.1,0.2,0.2c0,0.1-0.1,0.2-0.1,0.2c-0.2,0-0.4,0.1-0.4,0.2
			c-0.1,0.1-0.1,0.3-0.1,0.6c0,0.3,0,1,0,2.2c0.1,1.3,0.1,2.3,0.1,3c0.1,0.7,0.1,1.1,0.2,1.3c0.1,0.2,0.2,0.3,0.4,0.2
			c0.1,0,0.2,0.1,0.2,0.2c0,0.1-0.1,0.2-0.2,0.2c0,0-0.1,0-0.2,0c-0.5,0-0.9-0.1-1.1-0.1c-0.4,0-0.7,0.1-0.9,0.1c-0.1,0-0.2,0-0.2,0
			c-0.1,0-0.2-0.1-0.2-0.2c0-0.1,0-0.1,0.1-0.2c0.2-0.1,0.4-0.2,0.4-0.3c0.1-0.1,0.1-0.5,0.1-1.1c0-0.6,0-1.5-0.1-2.7
			c-0.1-1.3-0.1-2.1-0.1-2.5c-0.1-0.4-0.1-0.7-0.2-0.8c-0.1-0.1-0.2-0.1-0.4-0.2c-0.1,0-0.2-0.1-0.2-0.2
			C311.8,171.1,311.8,171.1,311.9,171.1z M315.1,171c0.1,0,0.3,0,0.6,0c0.2,0,0.4,0,0.5,0l1.3-0.1c0.1,0,0.2,0.1,0.2,0.2
			c0,0.1-0.1,0.2-0.1,0.2c-0.2,0-0.4,0.1-0.4,0.2c-0.1,0.1-0.1,0.3-0.1,0.6c0,0.3,0,1,0,2.2c0.1,1.3,0.1,2.3,0.1,3
			c0.1,0.7,0.1,1.1,0.2,1.3c0.1,0.2,0.2,0.3,0.4,0.2c0.1,0,0.2,0.1,0.2,0.2c0,0.1-0.1,0.2-0.2,0.2c0,0-0.1,0-0.2,0
			c-0.5,0-0.9-0.1-1.1-0.1c-0.4,0-0.7,0.1-0.9,0.1c-0.1,0-0.2,0-0.2,0c-0.1,0-0.2-0.1-0.2-0.2c0-0.1,0-0.1,0.1-0.2
			c0.2-0.1,0.4-0.2,0.4-0.3c0.1-0.1,0.1-0.5,0.1-1.1c0-0.6,0-1.5-0.1-2.7c-0.1-1.3-0.1-2.1-0.1-2.5c-0.1-0.4-0.1-0.7-0.2-0.8
			c-0.1-0.1-0.2-0.1-0.4-0.2c-0.1,0-0.2-0.1-0.2-0.2C315,171,315,171,315.1,171z M265.3,216.2c0.1,0,0.3,0,0.6,0c0.2,0,0.4,0,0.5,0
			l1.3-0.1c0.1,0,0.2,0.1,0.2,0.2c0,0.1-0.1,0.2-0.1,0.2c-0.2,0-0.4,0.1-0.4,0.2c-0.1,0.1-0.1,0.3-0.1,0.6c0,0.3,0,1,0,2.2
			c0.1,1.3,0.1,2.3,0.1,3c0.1,0.7,0.1,1.1,0.2,1.3c0.1,0.2,0.2,0.3,0.4,0.2c0.1,0,0.2,0.1,0.2,0.2c0,0.1-0.1,0.2-0.2,0.2
			c0,0-0.1,0-0.2,0c-0.5,0-0.9-0.1-1.1-0.1c-0.4,0-0.7,0.1-0.9,0.1c-0.1,0-0.2,0-0.2,0c-0.1,0-0.2-0.1-0.2-0.2c0-0.1,0-0.1,0.1-0.2
			c0.2-0.1,0.4-0.2,0.4-0.3c0.1-0.1,0.1-0.5,0.1-1.1s0-1.5-0.1-2.6c-0.1-1.3-0.1-2.1-0.1-2.5c-0.1-0.4-0.1-0.7-0.2-0.8
			c-0.1-0.1-0.2-0.1-0.4-0.2c-0.1,0-0.2-0.1-0.2-0.2C265.1,216.3,265.2,216.2,265.3,216.2z M271.5,219c0.6-1.1,0.8-1.8,0.8-2.1
			c0-0.1,0-0.3-0.1-0.3c-0.1-0.1-0.2-0.1-0.4-0.2c-0.1,0-0.1-0.1-0.1-0.2c0-0.1,0.1-0.2,0.1-0.2c0.1,0,0.2,0,0.3,0
			c0.2,0,0.4,0,0.5,0c0.2,0,0.4,0,0.8-0.1c0.1,0,0.2,0,0.3,0c0.1,0,0.2,0.1,0.2,0.2s-0.1,0.2-0.1,0.2c-0.2,0-0.4,0.1-0.6,0.3
			c-0.2,0.2-0.4,0.4-0.5,0.7c-0.1,0.3-0.5,1-1,2.1c0.3,0.8,0.7,1.6,1.2,2.5c0.4,0.9,0.8,1.4,1,1.6c0.2,0.2,0.4,0.3,0.6,0.3
			c0.1,0,0.2,0.1,0.2,0.2c0,0.1-0.1,0.2-0.2,0.2h-1.5c-0.2,0-0.4,0-0.6,0.1c-0.2,0-0.3,0-0.3,0c-0.1,0-0.2,0-0.2,0c0,0-0.1,0-0.1,0
			c-0.1,0-0.1-0.1-0.1-0.2c0-0.1,0-0.2,0.1-0.2c0.3-0.1,0.4-0.2,0.4-0.5c0-0.3-0.4-1.2-1.1-2.6c-0.7,1.4-1,2.3-1,2.5
			c0,0.3,0.2,0.5,0.7,0.6c0.1,0,0.1,0.1,0.1,0.1c0,0.1-0.1,0.2-0.1,0.2c-0.1,0-0.2,0-0.4,0c-0.2,0-0.5,0-0.7,0c-0.2,0-0.4,0-0.5,0.1
			c-0.2,0-0.3,0.1-0.3,0.1c-0.2,0-0.3-0.1-0.3-0.2c0-0.1,0-0.1,0.1-0.2c0.2-0.1,0.4-0.2,0.6-0.3c0.1-0.1,0.3-0.4,0.5-0.8
			c0.2-0.4,0.6-1.2,1.1-2.4c-0.8-1.7-1.3-2.7-1.6-3.2c-0.3-0.4-0.6-0.7-0.9-0.8c-0.1,0-0.2-0.1-0.2-0.2c0-0.1,0.1-0.2,0.1-0.2
			c0.1,0,0.1,0,0.2,0c0.2,0,0.6,0,1.1,0c0.2,0,0.5,0,0.9-0.1c0.2,0,0.3,0,0.4,0c0.1,0,0.2,0.1,0.2,0.2c0,0.1-0.1,0.2-0.2,0.2
			c-0.1,0-0.2,0.1-0.3,0.1c-0.1,0.1-0.2,0.2-0.2,0.3c0,0.1,0.1,0.3,0.2,0.6C270.8,217.7,271.1,218.2,271.5,219z M334.5,178.4
			c0.2,0.1,0.3,0.4,0.2,0.6l-2.1,4c-0.1,0.2-0.4,0.3-0.6,0.2c-0.2-0.1-0.3-0.4-0.2-0.6l2.1-4C334,178.3,334.3,178.3,334.5,178.4z
			 M351.7,194.4c0.1,0.2,0.1,0.4-0.1,0.6l-3.8,2.4c-0.2,0.1-0.4,0.1-0.6-0.1c-0.1-0.2-0.1-0.4,0.1-0.6l3.8-2.4
			C351.3,194.2,351.6,194.2,351.7,194.4z M353.3,239.9c-0.1,0.2-0.4,0.3-0.6,0.2l-4-2.1c-0.2-0.1-0.3-0.4-0.2-0.6
			c0.1-0.2,0.4-0.3,0.6-0.2l4,2.1C353.4,239.5,353.5,239.8,353.3,239.9z M337.3,257.2c-0.2,0.1-0.4,0.1-0.6-0.1l-2.4-3.8
			c-0.1-0.2-0.1-0.4,0.1-0.6c0.2-0.1,0.4-0.1,0.6,0.1l2.4,3.8C337.5,256.8,337.5,257.1,337.3,257.2z M291.9,258.8
			c-0.2-0.1-0.3-0.4-0.2-0.6l2.1-4c0.1-0.2,0.4-0.3,0.6-0.2c0.2,0.1,0.3,0.4,0.2,0.6l-2.1,4C292.3,258.9,292.1,258.9,291.9,258.8z
			 M274.7,242.8c-0.1-0.2-0.1-0.4,0.1-0.6l3.8-2.4c0.2-0.1,0.4-0.1,0.6,0.1c0.1,0.2,0.1,0.4-0.1,0.6l-3.8,2.4
			C275,243,274.8,243,274.7,242.8z M273,197.3c0.1-0.2,0.4-0.3,0.6-0.2l4,2.1c0.2,0.1,0.3,0.4,0.2,0.6c-0.1,0.2-0.4,0.3-0.6,0.2
			l-4-2.1C273,197.7,272.9,197.5,273,197.3z M289,180c0.2-0.1,0.4-0.1,0.6,0.1l2.4,3.9c0.1,0.2,0.1,0.4-0.1,0.6
			c-0.2,0.1-0.4,0.1-0.6-0.1l-2.4-3.9C288.8,180.4,288.9,180.1,289,180z"/>
		
			<linearGradient id="SVGID_00000005266458250710843960000015025894823465122182_" gradientUnits="userSpaceOnUse" x1="273.5628" y1="228.6984" x2="374.1188" y2="212.7744" gradientTransform="matrix(1 0 0 -1 0 441.068)">
			<stop  offset="0" style="stop-color:#715CF3"/>
			<stop  offset="1" style="stop-color:#5C99F3"/>
		</linearGradient>
		<path style="fill-rule:evenodd;clip-rule:evenodd;fill:url(#SVGID_00000005266458250710843960000015025894823465122182_);" d="
			M260.4,220.6c-1.1-29.2,21.8-53.8,50.9-54.8c12.3-0.4,23.9,3.4,33.1,10.2c12.6,9.2,21,24,21.6,40.8c0.6,16.9-6.7,32.1-18.6,42.3
			c-8.7,7.4-19.9,12.1-32.3,12.5C285.9,272.6,261.4,249.8,260.4,220.6z M344.1,166.6c-9.6-5.7-21-8.9-33-8.5
			c-33.3,1.2-59.4,29.2-58.2,62.6c1.2,33.4,29.2,59.5,62.5,58.3c12.1-0.4,23.1-4.4,32.4-10.8c16.3-11.4,26.6-30.5,25.8-51.8
			C372.8,195.1,361.1,176.8,344.1,166.6z"/>
		<path class="st20" d="M252.4,220.8c-1.2-33.6,25-61.9,58.6-63.1c33.6-1.2,61.7,25.1,62.9,58.7c1.2,33.6-25,61.9-58.6,63.1
			C281.8,280.7,253.6,254.5,252.4,220.8z M376.1,216.4c-1.3-34.8-30.4-62-65.1-60.7c-34.7,1.3-61.9,30.5-60.6,65.3
			c1.3,34.8,30.4,62,65.1,60.7C350.2,280.4,377.3,251.2,376.1,216.4z"/>
		<path class="st19" d="M311.5,166.4l-0.3,0l0.1,2.5l0.3,0L311.5,166.4z"/>
		<path class="st19" d="M324.7,167.7l-0.5,2.4l0.3,0.1l0.5-2.4L324.7,167.7z"/>
		<path class="st19" d="M337.5,172.4l-1.1,2.2l0.3,0.2l1.1-2.2L337.5,172.4z"/>
		<path class="st19" d="M348.6,180.3l-1.7,1.8l0.2,0.2l1.7-1.8L348.6,180.3z"/>
		<path class="st19" d="M357.3,190.8l-2.1,1.3l0.2,0.3l2.1-1.3L357.3,190.8z"/>
		<path class="st19" d="M363,203.1l-2.3,0.7l0.1,0.3l2.3-0.7L363,203.1z"/>
		<path class="st19" d="M365.2,216.6l-2.4,0.1l0,0.3l2.4-0.1L365.2,216.6z"/>
		<path class="st19" d="M361.6,229.6l-0.1,0.3l2.4,0.6l0.1-0.3L361.6,229.6z"/>
		<path class="st19" d="M357.1,241.8l-0.2,0.3l2.2,1.1l0.2-0.3L357.1,241.8z"/>
		<path class="st19" d="M349.6,252.4l-0.2,0.2l1.8,1.7l0.2-0.2L349.6,252.4z"/>
		<path class="st19" d="M339.7,260.7l-0.3,0.2l1.3,2.1l0.3-0.2L339.7,260.7z"/>
		<path class="st19" d="M327.9,266.1l-0.3,0.1l0.7,2.3l0.3-0.1L327.9,266.1z"/>
		<path class="st19" d="M315.1,268.3l-0.3,0l0.1,2.5l0.3,0L315.1,268.3z"/>
		<path class="st19" d="M301.9,267.1l-0.5,2.4l0.3,0.1l0.5-2.4L301.9,267.1z"/>
		<path class="st19" d="M289.7,262.5l-1.1,2.2l0.3,0.2l1.1-2.2L289.7,262.5z"/>
		<path class="st19" d="M279.2,254.9l-1.7,1.8l0.2,0.2l1.7-1.8L279.2,254.9z"/>
		<path class="st19" d="M271,244.9l-2.1,1.3l0.2,0.3l2.1-1.3L271,244.9z"/>
		<path class="st19" d="M265.7,233l-2.3,0.7l0.1,0.3l2.3-0.7L265.7,233z"/>
		<path class="st19" d="M263.6,220.2l-2.5,0.1l0,0.3l2.5-0.1L263.6,220.2z"/>
		<path class="st19" d="M262.4,206.8l-0.1,0.3l2.4,0.6l0.1-0.3L262.4,206.8z"/>
		<path class="st19" d="M267.2,194l-0.2,0.3l2.2,1.1l0.2-0.3L267.2,194z"/>
		<path class="st19" d="M275.2,182.9l-0.2,0.2l1.8,1.7l0.2-0.2L275.2,182.9z"/>
		<path class="st19" d="M285.7,174.3l-0.3,0.2l1.3,2.1l0.3-0.2L285.7,174.3z"/>
		<path class="st19" d="M298.1,168.6l-0.3,0.1l0.7,2.3l0.3-0.1L298.1,168.6z"/>
		<path class="st17" d="M326.3,162.4c1.6,0.4,3.1,0.8,4.6,1.3c6.5,2.1,12.6,5.4,18.3,9.8c0.2,0.1,0.2,0.4,0.1,0.5
			c-0.1,0.2-0.4,0.2-0.5,0.1c-5.6-4.4-11.6-7.6-18-9.7c-1.5-0.5-3-0.9-4.6-1.3L326.3,162.4z M286,269.5c-1.4-0.8-2.8-1.6-4.2-2.5
			c-5.7-3.8-10.8-8.5-15.1-14.2c-0.1-0.2-0.1-0.4,0.1-0.5c0.2-0.1,0.4-0.1,0.5,0.1c4.3,5.7,9.2,10.3,14.9,14.1
			c1.3,0.9,2.7,1.7,4.1,2.4L286,269.5z M262.5,192c-0.1,0.2-0.3,0.3-0.5,0.1c-0.2-0.1-0.3-0.3-0.1-0.5c3.7-6.4,8.1-11.9,13.3-16.4
			c5.2-4.5,11.1-8.1,17.8-10.7c0.2-0.1,0.4,0,0.5,0.2c0.1,0.2,0,0.4-0.2,0.5c-6.6,2.6-12.4,6.1-17.6,10.5
			C270.6,180.3,266.2,185.7,262.5,192z M368.8,231.9c0.1-0.2,0.3-0.3,0.4-0.3c0.2,0.1,0.3,0.3,0.3,0.4c-2,7.1-5,13.5-8.9,19.2
			c-3.9,5.7-8.8,10.6-14.6,14.7c-0.2,0.1-0.4,0.1-0.5-0.1c-0.1-0.2-0.1-0.4,0.1-0.5c5.8-4.1,10.6-9,14.4-14.5
			C363.9,245.3,366.8,238.9,368.8,231.9z"/>
		<path class="st22" d="M314.3,216.7c1.4,0.5,2,2.1,1.5,3.5c-0.5,1.4-2.1,2-3.5,1.5c-1.4-0.5-2-2.1-1.5-3.5
			C311.3,216.9,312.9,216.2,314.3,216.7z"/>
		<path class="st22" d="M327.7,196.4l-6.4,5.8c-3.1,2.8-3,3.9-4.8,7.8l-3.3,7.3l0.9,0.6l0.9,0.6l5.2-6.1c2.8-3.2,3.7-3.6,5-7.6
			L327.7,196.4z M343.4,253.7l-8.2-12.8c-4-6.2-5.5-7-10.9-12.4l-10.3-10.2l-0.8,0.7l-0.8,0.7l8.7,11.6c4.6,6.1,5.2,7.7,10.8,12.5
			L343.4,253.7z"/>
		<path class="st20" d="M314.2,216.2c1.4,0.5,2,2.1,1.5,3.5s-2.1,2-3.5,1.5c-1.4-0.5-2-2.1-1.5-3.5
			C311.3,216.3,312.8,215.6,314.2,216.2z"/>
		<path class="st20" d="M327.6,195.9l-6.4,5.8c-3.1,2.8-3,3.9-4.8,7.8l-3.3,7.3l0.9,0.6l0.9,0.6l5.2-6.1c2.8-3.2,3.7-3.6,5-7.6
			L327.6,195.9z M343.3,253.2l-8.2-12.8c-4-6.2-5.5-7-10.9-12.4l-10.3-10.2l-0.8,0.7l-0.8,0.7l8.7,11.6c4.6,6.1,5.2,7.7,10.8,12.5
			L343.3,253.2z"/>
		<path class="st23" d="M41.3,207.1l-13.9,11.1l5.9,4.3L41.3,207.1z"/>
		<path class="st23" d="M24.4,216.2l16.4-8.9l-21.4,7.9L24.4,216.2z"/>
		<path class="st20" d="M24.4,216.2l2.5,7.2l0.5-5.2l13.9-11.1l-0.5,0.2L24.4,216.2z"/>
		<path class="st24" d="M26.9,223.4l3.1-3.3l-2.6-1.9L26.9,223.4z"/>
		<path class="st20" d="M23.2,220.5c0.4-0.2,0.7,0.3,0.3,0.5c-0.2,0.1-0.4,0.2-0.5,0.3c-0.4,0.2-0.7-0.3-0.3-0.5
			C22.9,220.8,23.1,220.6,23.2,220.5z M41.3,253.4c-0.1,0.4-0.7,0.3-0.6-0.2c0.1-0.2,0.1-0.4,0.1-0.6c0.1-0.4,0.7-0.3,0.6,0.1
			C41.4,253,41.4,253.2,41.3,253.4z M41.7,250.8c0,0.4-0.6,0.4-0.6,0c0-0.2,0-0.4,0-0.6c0-0.4,0.6-0.4,0.6,0
			C41.8,250.4,41.7,250.6,41.7,250.8z M41.6,248.2c0.1,0.4-0.5,0.5-0.6,0.1c0-0.2-0.1-0.4-0.1-0.6c-0.1-0.4,0.5-0.6,0.6-0.2
			C41.5,247.8,41.6,248,41.6,248.2z M40.7,245.8c0.2,0.3-0.3,0.7-0.6,0.3c-0.1-0.2-0.2-0.4-0.3-0.5c-0.2-0.4,0.3-0.7,0.6-0.3
			C40.5,245.3,40.7,245.6,40.7,245.8z M39.3,243.6c0.3,0.3-0.2,0.7-0.5,0.4c-0.1-0.2-0.3-0.3-0.4-0.4c-0.3-0.3,0.1-0.8,0.4-0.4
			C39,243.2,39.2,243.4,39.3,243.6z M37.4,241.8c0.3,0.3-0.1,0.8-0.4,0.5c-0.2-0.1-0.3-0.3-0.5-0.4c-0.3-0.3,0-0.8,0.4-0.5
			C37.1,241.5,37.3,241.7,37.4,241.8z M35.3,240.4c0.4,0.2,0.1,0.8-0.3,0.6c-0.2-0.1-0.4-0.2-0.6-0.3c-0.4-0.2,0-0.8,0.3-0.6
			C34.9,240.2,35.1,240.3,35.3,240.4z M32.9,239.3c0.4,0.1,0.2,0.8-0.2,0.6l-0.6-0.2c-0.4-0.2-0.2-0.7,0.2-0.6
			C32.5,239.2,32.7,239.2,32.9,239.3z M30.5,238.6c0.4,0.1,0.3,0.7-0.1,0.6l-0.6-0.1c-0.4-0.1-0.3-0.7,0.1-0.6L30.5,238.6z
			 M27.9,238.1c0.4,0.1,0.3,0.7-0.1,0.6l-0.6-0.1c-0.4-0.1-0.3-0.7,0.1-0.6C27.5,238,27.7,238.1,27.9,238.1z M25.4,237.9
			c0.4,0.1,0.4,0.6,0,0.6c-0.2,0-0.4,0-0.6,0c-0.4-0.1-0.3-0.7,0.1-0.6L25.4,237.9z M22.9,237.6c0.4,0.1,0.3,0.7-0.1,0.6
			c-0.2,0-0.4-0.1-0.6-0.1c-0.4-0.1-0.3-0.7,0.1-0.6C22.5,237.6,22.7,237.6,22.9,237.6z M20.4,237.2c0.4,0.1,0.3,0.7-0.2,0.6
			c-0.2-0.1-0.4-0.1-0.6-0.2c-0.4-0.1-0.3-0.7,0.2-0.6C20,237.1,20.2,237.2,20.4,237.2z M18.1,236.4c0.4,0.2,0.1,0.8-0.3,0.6
			c-0.2-0.1-0.4-0.2-0.6-0.3c-0.4-0.2-0.1-0.8,0.3-0.6C17.7,236.2,17.9,236.3,18.1,236.4z M16.1,235.1c0.3,0.3-0.1,0.8-0.4,0.4
			c-0.2-0.2-0.3-0.3-0.4-0.5c-0.3-0.3,0.2-0.7,0.5-0.4C15.8,234.8,15.9,235,16.1,235.1z M15,233.1c0.1,0.4-0.5,0.6-0.6,0.1
			c-0.1-0.2-0.1-0.4-0.1-0.7c0-0.4,0.6-0.4,0.6,0C14.9,232.7,14.9,232.9,15,233.1z M15.1,230.7c-0.1,0.4-0.7,0.3-0.6-0.2
			c0.1-0.2,0.1-0.4,0.2-0.6c0.1-0.4,0.8-0.2,0.6,0.2C15.2,230.3,15.1,230.5,15.1,230.7z M16.1,228.5c-0.2,0.4-0.8,0.1-0.6-0.3
			c0.1-0.2,0.2-0.4,0.3-0.6c0.2-0.3,0.8-0.1,0.5,0.3C16.3,228.1,16.2,228.3,16.1,228.5z M17.5,226.4c-0.3,0.3-0.8-0.1-0.5-0.4
			c0.1-0.2,0.3-0.3,0.4-0.5c0.3-0.3,0.8,0.1,0.5,0.4C17.8,226.1,17.6,226.3,17.5,226.4z M19.2,224.6c-0.3,0.3-0.8-0.1-0.4-0.4
			c0.1-0.1,0.3-0.3,0.5-0.4c0.3-0.3,0.8,0.1,0.4,0.5C19.5,224.3,19.3,224.4,19.2,224.6z M21,222.9c-0.3,0.3-0.7-0.2-0.4-0.5l0.5-0.4
			c0.3-0.3,0.7,0.2,0.4,0.5C21.4,222.6,21.2,222.8,21,222.9z"/>
		<path class="st23" d="M253.6,7.4l-16.5,6.8l4.5,5.8L253.6,7.4z"/>
		<path class="st23" d="M234.7,11.5l18.4-4l-22.9,1.7L234.7,11.5z"/>
		<path class="st20" d="M234.7,11.5l0.4,7.6l1.9-4.9l16.5-6.8l-0.5,0L234.7,11.5z"/>
		<path class="st24" d="M235.1,19.1l3.9-2.3l-2-2.6L235.1,19.1z"/>
		<path class="st20" d="M230.9,18.5c0.5-0.1,0.4-0.9-0.1-0.8l-0.8,0.1c-0.5,0.1-0.4,0.9,0.1,0.8L230.9,18.5z M203.7,50.2
			c-0.4,0-0.5,0.4-0.3,0.7c0.1,0.1,0.2,0.1,0.3,0.1h0.5c0.5,0,0.5-0.8,0-0.8L203.7,50.2z M206.6,50.1c-0.5,0-0.5,0.8,0.1,0.8
			l0.8-0.1c0.6-0.1,0.4-0.9-0.1-0.8L206.6,50.1z M209.7,49.8c-0.5,0.1-0.4,0.9,0.1,0.8L209.7,49.8z M212.7,49.1
			c-0.5,0.2-0.3,0.9,0.2,0.8c0.3-0.1,0.5-0.2,0.8-0.3c0.5-0.2,0.2-0.9-0.3-0.7C213.2,48.9,213,49,212.7,49.1z M215.4,47.8
			c-0.4,0.3,0.1,0.9,0.5,0.6c0.2-0.2,0.4-0.4,0.6-0.6c0.4-0.4-0.3-0.9-0.6-0.5C215.8,47.4,215.6,47.6,215.4,47.8z M216.9,45.3
			c-0.1,0.6,0.7,0.6,0.8,0.1c0.1-0.3,0.1-0.6,0.1-0.8c0-0.6-0.8-0.5-0.8,0C217,44.9,217,45.1,216.9,45.3z M216.7,42.4
			c0.1,0.5,0.9,0.3,0.8-0.2c-0.1-0.3-0.1-0.5-0.2-0.8c-0.2-0.5-0.9-0.2-0.8,0.3C216.6,41.9,216.6,42.1,216.7,42.4z M215.6,39.5
			c0.2,0.4,0.9,0.2,0.7-0.3c-0.1-0.3-0.2-0.5-0.3-0.7c-0.3-0.5-0.9-0.1-0.7,0.4C215.4,39,215.5,39.2,215.6,39.5z M214.2,36.6
			c0.3,0.5,0.9,0.1,0.7-0.4l-0.4-0.7c-0.3-0.5-0.9-0.1-0.7,0.4C214,36.2,214.1,36.4,214.2,36.6z M212.7,33.8
			c0.3,0.5,0.9,0.1,0.7-0.4l-0.3-0.7c-0.3-0.5-0.9-0.1-0.7,0.3L212.7,33.8z M211.4,30.8c0.2,0.5,0.9,0.3,0.8-0.3
			c-0.1-0.3-0.1-0.5-0.2-0.7c-0.1-0.5-0.9-0.3-0.8,0.2C211.3,30.3,211.4,30.6,211.4,30.8z M211,27.5c-0.1,0.5,0.7,0.6,0.8,0.1
			c0-0.3,0.1-0.5,0.1-0.7c0.1-0.5-0.6-0.7-0.8-0.2C211.1,27,211.1,27.3,211,27.5z M212.3,24.4c-0.3,0.4,0.3,0.9,0.6,0.5
			c0.1-0.2,0.3-0.4,0.5-0.6c0.4-0.4-0.3-0.9-0.6-0.5C212.6,24,212.4,24.2,212.3,24.4z M214.7,22.2c-0.4,0.3,0,0.9,0.4,0.7
			c0.2-0.1,0.4-0.3,0.6-0.4c0.4-0.3,0.1-0.9-0.4-0.7C215.1,21.9,214.9,22,214.7,22.2z M217.5,20.6c-0.5,0.2-0.2,0.9,0.3,0.7
			c0.3-0.1,0.5-0.2,0.7-0.3c0.5-0.2,0.2-0.9-0.3-0.8C218,20.4,217.8,20.5,217.5,20.6z M220.6,19.6c-0.5,0.1-0.3,0.9,0.2,0.8l0.8-0.2
			c0.5-0.1,0.3-0.9-0.2-0.8L220.6,19.6z M223.7,18.8c-0.6,0.1-0.3,0.9,0.2,0.8l0.8-0.2c0.5-0.1,0.4-0.8-0.1-0.8L223.7,18.8z
			 M226.8,18.3c-0.5,0.1-0.4,0.9,0.1,0.8l0.8-0.1c0.5-0.1,0.4-0.9-0.1-0.8L226.8,18.3z"/>
		<path class="st23" d="M366.6,51.5l16.6,6.8l-4.5,5.8L366.6,51.5z"/>
		<path class="st23" d="M385.5,55.6l-18.4-4l22.9,1.7L385.5,55.6z"/>
		<path class="st20" d="M385.5,55.6l-0.4,7.6l-1.9-4.9l-16.6-6.8l0.5,0.1L385.5,55.6z"/>
		<path class="st24" d="M385.1,63.2l-3.9-2.3l2-2.6L385.1,63.2z"/>
		<path class="st20" d="M388.1,59.5c-0.4-0.1-0.5,0.6-0.1,0.6l0.6,0.1c0.4,0.1,0.5-0.6,0.1-0.6L388.1,59.5z M422.7,98.7
			c0.4-0.2,0.1-0.7-0.3-0.6c-0.2,0.1-0.4,0.2-0.5,0.3c-0.4,0.2-0.1,0.7,0.3,0.6L422.7,98.7z M420.3,99.6c0.4-0.1,0.3-0.7-0.2-0.6
			c-0.2,0.1-0.4,0.1-0.6,0.1c-0.4,0.1-0.2,0.7,0.1,0.6C419.9,99.7,420.1,99.7,420.3,99.6z M417.8,100.1c0.4-0.1,0.4-0.6,0-0.6
			c-0.2,0-0.4,0-0.6,0c-0.4,0-0.4,0.6,0,0.6C417.4,100.1,417.6,100.1,417.8,100.1z M415.3,99.9c0.4,0.1,0.5-0.5,0.1-0.6
			c-0.2,0-0.4-0.1-0.6-0.1c-0.4-0.1-0.5,0.5-0.1,0.6C414.9,99.8,415.1,99.9,415.3,99.9z M412.9,99.1c0.3,0.2,0.7-0.3,0.3-0.6
			c-0.2-0.1-0.3-0.2-0.5-0.3c-0.4-0.2-0.6,0.3-0.3,0.5C412.6,98.9,412.8,99,412.9,99.1z M410.9,97.7c0.3,0.3,0.7-0.2,0.4-0.4
			c-0.1-0.1-0.3-0.3-0.4-0.4c-0.3-0.3-0.7,0.1-0.4,0.4C410.6,97.4,410.7,97.6,410.9,97.7z M409.2,95.8c0.2,0.3,0.7,0,0.5-0.3
			c-0.1-0.2-0.2-0.3-0.3-0.5c-0.2-0.3-0.7-0.1-0.5,0.3C409,95.5,409.1,95.7,409.2,95.8z M408,93.6c0.1,0.4,0.7,0.2,0.6-0.2
			c-0.1-0.2-0.1-0.4-0.2-0.6c-0.1-0.4-0.7-0.2-0.6,0.2C407.9,93.2,408,93.4,408,93.6z M407.3,91.2c0.1,0.4,0.7,0.3,0.6-0.1l-0.1-0.6
			c-0.1-0.4-0.7-0.3-0.6,0.1L407.3,91.2z M406.8,88.8c0.1,0.4,0.7,0.3,0.6-0.1l-0.1-0.6c-0.1-0.4-0.7-0.3-0.6,0.1L406.8,88.8z
			 M406.4,86.4c0.1,0.4,0.7,0.3,0.6-0.1l-0.1-0.6c-0.1-0.4-0.6-0.3-0.6,0.1L406.4,86.4z M405.9,84c0.1,0.4,0.7,0.3,0.6-0.1
			c-0.1-0.2-0.1-0.4-0.2-0.6c-0.1-0.4-0.7-0.3-0.6,0.2C405.8,83.6,405.8,83.8,405.9,84z M405.3,81.9c0.2,0.2,0.6-0.1,0.5-0.4
			c-0.1-0.1-0.1-0.3-0.2-0.4c0-0.1-0.1-0.3-0.2-0.3c-0.2-0.1-0.6,0.1-0.5,0.4c-0.1,0.1-0.1,0.3-0.1,0.4
			C404.6,81.9,405,82.1,405.3,81.9z M404,79.6c0.3,0.3,0.7-0.1,0.5-0.4c-0.1-0.2-0.3-0.3-0.4-0.5c-0.2-0.3-0.7,0.1-0.4,0.4
			C403.8,79.3,403.9,79.5,404,79.6z M402.4,78c0.4,0.2,0.6-0.3,0.3-0.5c-0.2-0.1-0.4-0.2-0.6-0.3c-0.3-0.2-0.7,0.3-0.3,0.5
			C402,77.8,402.2,77.9,402.4,78z M400.2,77.1c0.4,0.1,0.5-0.5,0.2-0.6c-0.2-0.1-0.4-0.1-0.6-0.1c-0.4-0.1-0.6,0.5-0.1,0.6
			C399.8,77,400,77,400.2,77.1z M397.9,76.7c0.4,0.1,0.5-0.6,0.1-0.6c-0.2,0-0.4,0-0.6,0c-0.4,0-0.4,0.6,0,0.6
			C397.5,76.7,397.7,76.7,397.9,76.7z M395.5,76.8c0.4-0.1,0.3-0.7-0.1-0.6c-0.2,0-0.4,0.1-0.6,0.1c-0.4,0.1-0.3,0.6,0.1,0.6
			C395.1,76.8,395.3,76.8,395.5,76.8z M393.2,77.4c0.4-0.1,0.1-0.7-0.3-0.6c-0.2,0.1-0.4,0.2-0.6,0.3c-0.3,0.2-0.1,0.7,0.3,0.5
			C392.9,77.5,393,77.4,393.2,77.4z M391.4,78.7c0.3-0.3-0.2-0.7-0.5-0.4c-0.1,0.2-0.3,0.3-0.4,0.5c-0.2,0.4,0.3,0.6,0.5,0.3
			C391.2,79,391.3,78.9,391.4,78.7z M390.4,80.8c0.1-0.4-0.5-0.5-0.6-0.1c-0.1,0.2-0.1,0.4-0.1,0.6c0,0.4,0.6,0.4,0.6,0
			C390.3,81.1,390.3,80.9,390.4,80.8z M390.5,83c-0.1-0.3-0.7-0.3-0.6,0.2c0.1,0.2,0.1,0.4,0.2,0.6c0.2,0.4,0.7,0.1,0.6-0.3
			C390.6,83.4,390.6,83.2,390.5,83z M391.6,85c-0.3-0.3-0.7,0.1-0.4,0.4c0.1,0.2,0.3,0.3,0.4,0.5c0.3,0.3,0.7-0.2,0.4-0.4
			C391.9,85.3,391.8,85.2,391.6,85z M393.5,86.5c-0.3-0.2-0.7,0.3-0.3,0.5c0.2,0.1,0.4,0.2,0.6,0.3c0.4,0.2,0.6-0.4,0.3-0.6
			C393.8,86.6,393.6,86.6,393.5,86.5z M395.7,87.3c-0.4-0.1-0.6,0.5-0.1,0.6c0.2,0.1,0.4,0.1,0.6,0.1c0.4,0.1,0.5-0.6,0.1-0.6
			C396.1,87.4,395.9,87.3,395.7,87.3z M398,87.4c-0.4,0.1-0.3,0.7,0.1,0.6c0.2,0,0.4-0.1,0.6-0.1c0.4-0.1,0.2-0.7-0.1-0.6
			C398.4,87.4,398.2,87.4,398,87.4z M400.2,86.8c-0.4,0.2-0.1,0.7,0.3,0.6c0.2-0.1,0.4-0.2,0.6-0.3c0.3-0.2,0.1-0.7-0.3-0.5
			C400.6,86.6,400.4,86.7,400.2,86.8z M402.2,85.5c-0.3,0.3,0.1,0.7,0.4,0.4c0.1-0.1,0.3-0.3,0.4-0.4c0.3-0.3-0.2-0.7-0.4-0.4
			C402.4,85.2,402.3,85.3,402.2,85.5z M403.7,83.7c-0.2,0.4,0.3,0.6,0.5,0.3c0.1-0.2,0.2-0.4,0.3-0.5c0.2-0.4-0.3-0.6-0.5-0.3
			C403.9,83.3,403.8,83.5,403.7,83.7z M405.4,79.2c-0.1,0.4,0.5,0.6,0.6,0.1c0.1-0.2,0.1-0.4,0.1-0.6c0.1-0.4-0.6-0.5-0.6-0.1
			C405.5,78.9,405.5,79.1,405.4,79.2z M405.7,76.9c0,0.4,0.6,0.4,0.6,0c0-0.2,0-0.4,0-0.6c0-0.4-0.6-0.4-0.6,0
			C405.7,76.5,405.7,76.7,405.7,76.9z M405.6,74.5c0.1,0.4,0.7,0.3,0.6-0.1c0-0.2-0.1-0.4-0.1-0.6c-0.1-0.4-0.7-0.3-0.6,0.1
			C405.6,74.1,405.6,74.3,405.6,74.5z M405.2,72.1c0.1,0.4,0.7,0.3,0.6-0.2c-0.1-0.2-0.1-0.4-0.2-0.6c-0.1-0.4-0.7-0.2-0.6,0.2
			C405,71.7,405.1,71.9,405.2,72.1z M404.3,69.9c0.2,0.4,0.7,0,0.6-0.3c-0.1-0.2-0.2-0.4-0.3-0.6c-0.2-0.4-0.7-0.1-0.5,0.3
			C404.2,69.5,404.2,69.7,404.3,69.9z M403.1,67.8c0.2,0.3,0.7,0,0.5-0.4c-0.1-0.2-0.3-0.3-0.4-0.5c-0.3-0.3-0.7,0.1-0.5,0.4
			C402.9,67.5,403,67.6,403.1,67.8z M401.6,66c0.3,0.3,0.7-0.1,0.4-0.4c-0.1-0.1-0.3-0.3-0.4-0.4c-0.3-0.3-0.7,0.1-0.4,0.4
			C401.3,65.7,401.5,65.8,401.6,66z M399.8,64.4c0.3,0.2,0.7-0.2,0.4-0.5c-0.2-0.1-0.3-0.3-0.5-0.4c-0.3-0.2-0.7,0.3-0.3,0.5
			C399.5,64.1,399.6,64.3,399.8,64.4z M397.8,63.1c0.3,0.2,0.6-0.3,0.3-0.5c-0.2-0.1-0.4-0.2-0.6-0.3c-0.3-0.2-0.7,0.3-0.3,0.6
			C397.4,62.9,397.6,63,397.8,63.1z M395.6,62c0.4,0.2,0.6-0.4,0.2-0.6c-0.2-0.1-0.4-0.2-0.6-0.2c-0.4-0.1-0.6,0.4-0.2,0.6
			C395.2,61.8,395.4,61.9,395.6,62z M393.4,61.2c0.4,0.1,0.5-0.5,0.2-0.6l-0.6-0.2c-0.4-0.1-0.5,0.5-0.2,0.6L393.4,61.2z M391,60.6
			c0.4,0.1,0.6-0.5,0.1-0.6c-0.2-0.1-0.4-0.1-0.6-0.1c-0.4-0.1-0.5,0.6-0.1,0.6C390.6,60.5,390.8,60.6,391,60.6z"/>
		<path class="st23" d="M131.7,55.8l-13.9,11l5.9,4.3L131.7,55.8z"/>
		<path class="st23" d="M114.8,64.9l16.4-8.9l-21.4,7.9L114.8,64.9z"/>
		<path class="st20" d="M114.8,64.9l2.5,7.2l0.5-5.2l13.9-11l-0.5,0.2L114.8,64.9z"/>
		<path class="st24" d="M117.3,72l3.1-3.3l-2.6-1.9L117.3,72z"/>
		<path class="st20" d="M114.9,70.4c0.4-0.2,0-0.7-0.3-0.5c-0.2,0.1-0.4,0.2-0.5,0.3c-0.3,0.2-0.1,0.7,0.3,0.5
			C114.6,70.6,114.7,70.5,114.9,70.4z M67.4,79.2c-0.3-0.3-0.7,0.1-0.5,0.4l0.4,0.5c0.3,0.3,0.7-0.1,0.5-0.4L67.4,79.2z M68.9,81
			c-0.3-0.3-0.7,0.1-0.4,0.4c0.1,0.1,0.3,0.3,0.4,0.4c0.3,0.3,0.7-0.1,0.4-0.4C69.2,81.3,69.1,81.1,68.9,81z M70.7,82.6
			c-0.3-0.3-0.7,0.2-0.4,0.5c0.2,0.1,0.3,0.3,0.5,0.4c0.3,0.3,0.7-0.2,0.4-0.5C71,82.9,70.8,82.8,70.7,82.6z M72.6,84
			c-0.4-0.2-0.6,0.3-0.3,0.5c0.2,0.1,0.3,0.2,0.5,0.3c0.4,0.2,0.6-0.3,0.3-0.5C72.9,84.3,72.7,84.2,72.6,84z M74.6,85.2
			c-0.4-0.2-0.6,0.4-0.2,0.6c0.2,0.1,0.4,0.2,0.6,0.3c0.4,0.2,0.6-0.4,0.2-0.6C75,85.4,74.8,85.3,74.6,85.2z M76.8,86.1
			c-0.3-0.1-0.6,0.4-0.2,0.6c0.2,0.1,0.4,0.1,0.6,0.2c0.4,0.1,0.5-0.5,0.2-0.6C77.2,86.2,77,86.2,76.8,86.1z M79.1,86.7
			c-0.4-0.1-0.5,0.5-0.1,0.6c0.2,0.1,0.4,0.1,0.6,0.1c0.4,0.1,0.5-0.6,0.1-0.6C79.5,86.8,79.3,86.8,79.1,86.7z M81.5,87.1
			c-0.4-0.1-0.5,0.6-0.1,0.6c0.2,0,0.4,0,0.6,0.1c0.4,0.1,0.5-0.6,0-0.6L81.5,87.1z M83.8,87.2c-0.4,0-0.4,0.6,0,0.6
			c0.2,0,0.4,0,0.6,0c0.4,0,0.4-0.6,0-0.6C84.2,87.2,84,87.2,83.8,87.2z M86.2,87.1c-0.4,0.1-0.3,0.6,0.1,0.6c0.2,0,0.4-0.1,0.6-0.1
			c0.4-0.1,0.3-0.6-0.1-0.6C86.6,87,86.4,87.1,86.2,87.1z M88.6,86.7c-0.4,0.1-0.2,0.7,0.1,0.6c0.2-0.1,0.4-0.1,0.6-0.1
			c0.4-0.1,0.3-0.7-0.1-0.6C88.9,86.6,88.8,86.7,88.6,86.7z M90.8,86.1c-0.4,0.1-0.2,0.7,0.2,0.6c0.2-0.1,0.4-0.1,0.6-0.2
			c0.4-0.1,0.2-0.7-0.2-0.6C91.2,86,91,86,90.8,86.1z M93,85.2c-0.3,0.1-0.1,0.7,0.3,0.6c0.2-0.1,0.4-0.2,0.6-0.3
			c0.2-0.1,0.2-0.3,0.1-0.4l0.1,0c0.4,0.1,0.5-0.6,0.1-0.6c-0.2,0-0.4-0.1-0.6-0.1c-0.4-0.1-0.5,0.5-0.1,0.6L93,85.2z M95.1,84.1
			c-0.3,0.2-0.1,0.7,0.3,0.5c0.2-0.1,0.3-0.2,0.5-0.3c0.3-0.3,0-0.7-0.3-0.5C95.5,83.9,95.3,84,95.1,84.1z M97,82.7
			c-0.3,0.3,0.1,0.7,0.4,0.4c0.2-0.1,0.3-0.3,0.4-0.4c0.3-0.3-0.1-0.7-0.4-0.4C97.3,82.5,97.2,82.6,97,82.7z M98.6,81
			c-0.2,0.3,0.3,0.7,0.5,0.3c0.1-0.2,0.2-0.4,0.3-0.5c0.2-0.3-0.3-0.6-0.5-0.3C98.8,80.7,98.7,80.8,98.6,81z M99.5,78.9
			c-0.1,0.4,0.5,0.5,0.6,0.1c0.1-0.2,0.1-0.4,0.1-0.6c0.1-0.4-0.6-0.5-0.6-0.1C99.6,78.5,99.6,78.7,99.5,78.9z M99.5,76.7
			c0.1,0.4,0.7,0.3,0.6-0.2c-0.1-0.2-0.1-0.4-0.2-0.6c-0.2-0.4-0.7-0.1-0.6,0.2C99.4,76.3,99.5,76.5,99.5,76.7z M98.4,74.6
			c0.3,0.3,0.7-0.1,0.5-0.4c-0.1-0.2-0.3-0.3-0.4-0.5c-0.2-0.3-0.7,0.1-0.5,0.4C98.2,74.3,98.3,74.5,98.4,74.6z M96.9,72.9
			c0.3,0.2,0.7-0.2,0.4-0.5c-0.2-0.1-0.3-0.3-0.5-0.4c-0.4-0.2-0.6,0.3-0.3,0.5C96.6,72.7,96.7,72.8,96.9,72.9z M94.9,71.9
			c0.4,0.1,0.5-0.5,0.1-0.6c-0.2-0.1-0.4-0.1-0.6-0.1c-0.4-0.1-0.5,0.6-0.1,0.6C94.5,71.8,94.7,71.9,94.9,71.9z M92.6,71.8
			c0.4-0.1,0.2-0.7-0.1-0.6c-0.2,0-0.4,0.1-0.6,0.2c-0.4,0.1-0.2,0.7,0.2,0.6C92.2,71.9,92.4,71.9,92.6,71.8z M90.5,72.7
			c0.3-0.3,0-0.7-0.3-0.5c-0.2,0.1-0.3,0.3-0.5,0.4c-0.3,0.3,0.1,0.7,0.4,0.5C90.2,72.9,90.4,72.8,90.5,72.7z M88.8,74.3
			c0.2-0.3-0.2-0.7-0.5-0.4c-0.1,0.2-0.2,0.3-0.4,0.5c-0.2,0.4,0.3,0.6,0.5,0.3C88.6,74.6,88.7,74.4,88.8,74.3z M87.7,76.3
			c0.1-0.4-0.4-0.6-0.6-0.2c-0.1,0.2-0.1,0.4-0.2,0.6c-0.1,0.4,0.5,0.5,0.6,0.1C87.6,76.7,87.7,76.5,87.7,76.3z M87.4,78.6
			c0-0.4-0.6-0.4-0.6,0c0,0.2,0,0.4,0.1,0.6c0.1,0.4,0.6,0.3,0.6-0.1C87.4,78.9,87.4,78.7,87.4,78.6z M87.9,80.8
			c-0.2-0.4-0.7-0.1-0.5,0.3c0.1,0.2,0.2,0.4,0.3,0.6c0.2,0.3,0.7,0,0.5-0.3C88.1,81.1,88,80.9,87.9,80.8z M89.4,82.5
			c-0.3-0.3-0.7,0.2-0.4,0.5c0.2,0.1,0.3,0.3,0.5,0.4c0.4,0.2,0.6-0.3,0.3-0.5C89.7,82.7,89.6,82.6,89.4,82.5z M91.4,83.7
			c-0.4-0.2-0.6,0.4-0.3,0.6c0.2,0.1,0.4,0.2,0.6,0.3c0.4,0.1,0.6-0.4,0.2-0.6C91.8,83.8,91.6,83.7,91.4,83.7z M95.9,84.8
			c0.2,0,0.4,0,0.6,0c0.4-0.1,0.5,0.6,0,0.6c-0.2,0-0.4,0-0.6,0C95.6,85.4,95.6,84.8,95.9,84.8z M98.3,84.5
			c-0.4,0.1-0.3,0.7,0.2,0.6c0.2-0.1,0.4-0.1,0.6-0.2c0.4-0.1,0.2-0.7-0.2-0.6C98.6,84.4,98.4,84.4,98.3,84.5z M100.4,83.5
			c-0.3,0.2-0.1,0.7,0.3,0.5c0.2-0.1,0.4-0.2,0.5-0.3c0.3-0.2,0.1-0.7-0.3-0.5C100.7,83.3,100.6,83.5,100.4,83.5z M102.3,82.2
			c-0.3,0.3,0.1,0.7,0.4,0.4c0.2-0.1,0.3-0.3,0.5-0.4c0.3-0.2-0.1-0.7-0.4-0.4C102.6,81.9,102.5,82.1,102.3,82.2z M104,80.6
			c-0.3,0.3,0.1,0.7,0.4,0.4l0.4-0.4c0.3-0.3-0.2-0.7-0.4-0.4C104.3,80.3,104.2,80.4,104,80.6z M105.6,78.8
			c-0.2,0.3,0.2,0.7,0.4,0.4l0.4-0.5c0.3-0.3-0.2-0.7-0.5-0.4L105.6,78.8z M107.2,76.9c-0.3,0.3,0.2,0.7,0.5,0.4l0.4-0.5
			c0.3-0.3-0.2-0.7-0.5-0.4L107.2,76.9z M108.7,75.1c-0.3,0.3,0.2,0.7,0.4,0.4l0.4-0.4c0.3-0.3-0.2-0.7-0.4-0.4L108.7,75.1z
			 M110.3,73.2c-0.3,0.3,0.1,0.7,0.4,0.4l0.4-0.4c0.3-0.3-0.1-0.7-0.4-0.4L110.3,73.2z M112.1,71.6c-0.3,0.3,0.1,0.7,0.4,0.5
			c0.1-0.1,0.3-0.3,0.4-0.4c0.3-0.3-0.1-0.7-0.4-0.5C112.4,71.3,112.3,71.5,112.1,71.6z"/>
		<path class="st23" d="M350.9,115l16.6,6.8l-4.5,5.8L350.9,115z"/>
		<path class="st23" d="M369.8,119l-18.4-4l22.9,1.7L369.8,119z"/>
		<path class="st20" d="M369.8,119l-0.4,7.6l-1.9-4.9l-16.6-6.8l0.5,0L369.8,119z"/>
		<path class="st24" d="M369.3,126.6l-3.9-2.3l2-2.6L369.3,126.6z"/>
		<path class="st20" d="M372.4,123c-0.4-0.1-0.5,0.6-0.1,0.6l0.6,0.1c0.4,0.1,0.5-0.6,0.1-0.6L372.4,123z M406.9,162.2
			c0.4-0.2,0.1-0.7-0.3-0.6c-0.2,0.1-0.4,0.2-0.5,0.3c-0.4,0.2-0.1,0.7,0.2,0.6L406.9,162.2z M404.6,163.1c0.4-0.1,0.2-0.7-0.2-0.6
			c-0.2,0.1-0.4,0.1-0.6,0.1c-0.4,0.1-0.3,0.7,0.1,0.6C404.2,163.2,404.4,163.1,404.6,163.1z M402.1,163.5c0.4-0.1,0.4-0.6,0-0.6
			c-0.2,0-0.4,0-0.6,0c-0.4,0-0.4,0.6,0,0.6C401.7,163.5,401.9,163.5,402.1,163.5z M399.6,163.4c0.4,0.1,0.5-0.5,0.1-0.6
			c-0.2,0-0.4-0.1-0.6-0.1c-0.4-0.1-0.5,0.5-0.1,0.6C399.2,163.3,399.4,163.3,399.6,163.4z M397.2,162.6c0.3,0.2,0.7-0.3,0.3-0.6
			c-0.2-0.1-0.3-0.2-0.5-0.3c-0.4-0.2-0.6,0.3-0.3,0.5C396.8,162.4,397,162.5,397.2,162.6z M395.1,161.2c0.3,0.3,0.7-0.2,0.4-0.4
			c-0.1-0.1-0.3-0.3-0.4-0.4c-0.3-0.3-0.7,0.1-0.4,0.4C394.8,160.9,395,161,395.1,161.2z M393.5,159.3c0.2,0.3,0.7,0,0.5-0.3
			c-0.1-0.2-0.2-0.3-0.3-0.5c-0.2-0.3-0.7-0.1-0.5,0.3C393.2,158.9,393.4,159.1,393.5,159.3z M392.3,157c0.1,0.4,0.7,0.2,0.6-0.2
			c-0.1-0.2-0.1-0.4-0.2-0.6c-0.1-0.4-0.7-0.2-0.6,0.2C392.2,156.6,392.2,156.8,392.3,157z M391.6,154.7c0.1,0.4,0.7,0.3,0.6-0.1
			l-0.1-0.6c-0.1-0.4-0.7-0.3-0.6,0.1L391.6,154.7z M391.1,152.3c0.1,0.4,0.7,0.3,0.6-0.1l-0.1-0.6c-0.1-0.4-0.7-0.3-0.6,0.1
			L391.1,152.3z M390.6,149.8c0.1,0.4,0.7,0.3,0.6-0.1l-0.1-0.6c-0.1-0.4-0.6-0.3-0.6,0.1L390.6,149.8z M390.1,147.5
			c0.1,0.4,0.7,0.3,0.6-0.1c-0.1-0.2-0.1-0.4-0.2-0.6c-0.1-0.4-0.7-0.3-0.6,0.2C390,147.1,390.1,147.3,390.1,147.5z M389.5,145.3
			c0.2,0.2,0.6-0.1,0.5-0.4c-0.1-0.1-0.1-0.3-0.2-0.4c0-0.1-0.1-0.3-0.2-0.3c-0.2-0.1-0.6,0.1-0.5,0.4c-0.1,0.1-0.1,0.3-0.1,0.4
			C388.9,145.3,389.3,145.5,389.5,145.3z M388.3,143.1c0.3,0.3,0.7-0.1,0.5-0.4c-0.1-0.2-0.3-0.3-0.4-0.5c-0.3-0.3-0.7,0.1-0.4,0.4
			C388.1,142.8,388.2,142.9,388.3,143.1z M386.6,141.5c0.4,0.2,0.6-0.3,0.3-0.5c-0.2-0.1-0.4-0.2-0.6-0.3c-0.3-0.2-0.7,0.3-0.3,0.5
			C386.3,141.3,386.5,141.4,386.6,141.5z M384.5,140.5c0.4,0.1,0.5-0.5,0.2-0.6c-0.2-0.1-0.4-0.1-0.6-0.1c-0.4-0.1-0.6,0.5-0.1,0.6
			C384.1,140.4,384.3,140.5,384.5,140.5z M382.1,140.2c0.4,0.1,0.5-0.6,0.1-0.6c-0.2,0-0.4,0-0.6,0c-0.4,0-0.4,0.6,0,0.6
			C381.7,140.1,381.9,140.2,382.1,140.2z M379.8,140.2c0.4-0.1,0.3-0.7-0.1-0.6c-0.2,0-0.4,0.1-0.6,0.1c-0.4,0.1-0.3,0.6,0.1,0.6
			C379.4,140.3,379.6,140.2,379.8,140.2z M377.5,140.8c0.4-0.1,0.1-0.7-0.3-0.6c-0.2,0.1-0.4,0.2-0.6,0.3c-0.3,0.2-0.1,0.7,0.3,0.5
			C377.1,141,377.3,140.9,377.5,140.8z M375.6,142.2c0.3-0.3-0.2-0.7-0.5-0.4c-0.1,0.2-0.3,0.3-0.4,0.5c-0.2,0.4,0.3,0.6,0.5,0.3
			C375.4,142.5,375.5,142.3,375.6,142.2z M374.6,144.2c0.1-0.4-0.5-0.5-0.6-0.1c-0.1,0.2-0.1,0.4-0.1,0.6c0,0.4,0.6,0.4,0.6,0
			C374.6,144.6,374.6,144.4,374.6,144.2z M374.8,146.5c-0.1-0.3-0.7-0.3-0.6,0.2c0.1,0.2,0.1,0.4,0.2,0.6c0.2,0.4,0.7,0.1,0.6-0.3
			C374.9,146.8,374.8,146.7,374.8,146.5z M375.9,148.5c-0.2-0.3-0.7,0.1-0.4,0.4c0.1,0.2,0.3,0.3,0.4,0.5c0.3,0.3,0.7-0.2,0.4-0.4
			C376.2,148.7,376,148.6,375.9,148.5z M377.7,149.9c-0.3-0.2-0.7,0.3-0.3,0.5c0.2,0.1,0.4,0.2,0.6,0.3c0.4,0.2,0.6-0.4,0.3-0.6
			C378.1,150.1,377.9,150,377.7,149.9z M379.9,150.7c-0.4-0.1-0.6,0.5-0.1,0.6c0.2,0.1,0.4,0.1,0.6,0.1c0.4,0.1,0.5-0.6,0.1-0.6
			C380.3,150.8,380.1,150.8,379.9,150.7z M382.3,150.9c-0.4,0.1-0.3,0.7,0.1,0.6c0.2,0,0.4-0.1,0.6-0.1c0.4-0.1,0.2-0.7-0.1-0.6
			C382.7,150.8,382.4,150.9,382.3,150.9z M384.5,150.3c-0.4,0.2-0.1,0.7,0.3,0.6c0.2-0.1,0.4-0.2,0.6-0.3c0.3-0.2,0.1-0.7-0.3-0.5
			C384.9,150.1,384.7,150.2,384.5,150.3z M386.4,148.9c-0.3,0.3,0.1,0.7,0.4,0.4c0.1-0.1,0.3-0.3,0.4-0.4c0.3-0.3-0.2-0.7-0.4-0.4
			C386.7,148.6,386.6,148.8,386.4,148.9z M387.9,147.1c-0.2,0.4,0.3,0.6,0.5,0.3c0.1-0.2,0.2-0.4,0.3-0.5c0.2-0.4-0.3-0.6-0.5-0.3
			C388.1,146.8,388,146.9,387.9,147.1z M389.7,142.7c-0.1,0.4,0.5,0.6,0.6,0.1c0-0.2,0.1-0.4,0.1-0.6c0.1-0.4-0.6-0.5-0.6-0.1
			C389.8,142.3,389.8,142.5,389.7,142.7z M390,140.3c0,0.4,0.6,0.4,0.6,0c0-0.2,0-0.4,0-0.6c0-0.4-0.6-0.4-0.6,0
			C390,139.9,390,140.1,390,140.3z M389.9,137.9c0.1,0.4,0.7,0.3,0.6-0.1c0-0.2-0.1-0.4-0.1-0.6c-0.1-0.4-0.7-0.3-0.6,0.1
			C389.9,137.5,389.9,137.7,389.9,137.9z M389.4,135.6c0.1,0.4,0.7,0.3,0.6-0.2c-0.1-0.2-0.1-0.4-0.2-0.6c-0.1-0.4-0.7-0.2-0.6,0.2
			C389.3,135.2,389.4,135.4,389.4,135.6z M388.6,133.3c0.2,0.4,0.7,0,0.6-0.3c-0.1-0.2-0.2-0.4-0.3-0.6c-0.2-0.4-0.7-0.1-0.5,0.3
			C388.4,133,388.5,133.2,388.6,133.3z M387.4,131.3c0.2,0.3,0.7,0,0.5-0.4c-0.1-0.2-0.3-0.3-0.4-0.5c-0.3-0.3-0.7,0.1-0.5,0.4
			C387.1,130.9,387.3,131.1,387.4,131.3z M385.9,129.4c0.3,0.3,0.7-0.1,0.4-0.4c-0.1-0.1-0.3-0.3-0.4-0.4c-0.3-0.3-0.7,0.1-0.4,0.4
			C385.6,129.1,385.7,129.3,385.9,129.4z M384,127.8c0.3,0.2,0.7-0.2,0.4-0.5c-0.2-0.1-0.3-0.3-0.5-0.4c-0.3-0.2-0.7,0.3-0.3,0.5
			C383.7,127.6,383.9,127.7,384,127.8z M382,126.5c0.3,0.2,0.6-0.3,0.3-0.5c-0.2-0.1-0.4-0.2-0.6-0.3c-0.3-0.2-0.7,0.3-0.3,0.6
			C381.7,126.3,381.9,126.4,382,126.5z M379.9,125.4c0.4,0.2,0.6-0.4,0.2-0.6c-0.2-0.1-0.4-0.2-0.6-0.2c-0.4-0.1-0.6,0.4-0.2,0.6
			C379.5,125.3,379.7,125.4,379.9,125.4z M377.6,124.6c0.4,0.1,0.5-0.5,0.2-0.6l-0.6-0.2c-0.4-0.1-0.5,0.5-0.2,0.6L377.6,124.6z
			 M375.3,124.1c0.4,0.1,0.6-0.5,0.1-0.6c-0.2-0.1-0.4-0.1-0.6-0.1c-0.4-0.1-0.5,0.6-0.1,0.6C374.9,124,375.1,124,375.3,124.1z"/>
		<path class="st23" d="M235.7,117.5l-13.9,11l5.9,4.3L235.7,117.5z"/>
		<path class="st23" d="M218.8,126.6l16.4-8.9l-21.4,7.9L218.8,126.6z"/>
		<path class="st20" d="M218.8,126.6l2.5,7.2l0.5-5.2l13.9-11l-0.5,0.2L218.8,126.6z"/>
		<path class="st24" d="M221.4,133.7l3.1-3.3l-2.6-1.9L221.4,133.7z"/>
		<path class="st20" d="M217.7,130.9c0.4-0.2,0.7,0.3,0.3,0.5c-0.2,0.1-0.4,0.2-0.5,0.3c-0.4,0.2-0.7-0.3-0.3-0.5
			C217.3,131.1,217.5,131,217.7,130.9z M235.8,163.8c-0.1,0.4-0.7,0.3-0.6-0.2c0.1-0.2,0.1-0.4,0.1-0.6c0.1-0.4,0.7-0.3,0.6,0.1
			C235.9,163.3,235.8,163.5,235.8,163.8z M236.2,161.2c0,0.4-0.6,0.4-0.6,0c0-0.2,0-0.4,0-0.6c0-0.4,0.6-0.4,0.6,0
			C236.2,160.7,236.2,161,236.2,161.2z M236,158.6c0.1,0.4-0.5,0.5-0.6,0.1c0-0.2-0.1-0.4-0.1-0.6c-0.1-0.4,0.5-0.6,0.6-0.2
			C235.9,158.1,236,158.4,236,158.6z M235.2,156.1c0.2,0.3-0.3,0.7-0.6,0.3c-0.1-0.2-0.2-0.4-0.3-0.5c-0.2-0.4,0.3-0.7,0.6-0.3
			C235,155.7,235.1,155.9,235.2,156.1z M233.8,153.9c0.3,0.3-0.2,0.7-0.5,0.4c-0.1-0.2-0.3-0.3-0.4-0.4c-0.3-0.3,0.1-0.8,0.4-0.4
			C233.5,153.6,233.6,153.7,233.8,153.9z M231.9,152.1c0.3,0.3-0.1,0.8-0.4,0.5c-0.2-0.1-0.3-0.3-0.5-0.4c-0.3-0.3,0-0.8,0.4-0.5
			C231.5,151.9,231.7,152,231.9,152.1z M229.7,150.7c0.4,0.2,0.1,0.8-0.3,0.6c-0.2-0.1-0.4-0.2-0.6-0.3c-0.4-0.2,0-0.8,0.3-0.6
			C229.3,150.5,229.5,150.6,229.7,150.7z M227.4,149.7c0.4,0.1,0.2,0.8-0.2,0.6l-0.6-0.2c-0.4-0.2-0.2-0.7,0.2-0.6
			C226.9,149.5,227.1,149.6,227.4,149.7z M224.9,148.9c0.4,0.1,0.3,0.7-0.1,0.6l-0.6-0.1c-0.4-0.1-0.2-0.7,0.1-0.6L224.9,148.9z
			 M222.4,148.4c0.4,0.1,0.3,0.7-0.1,0.6l-0.6-0.1c-0.4-0.1-0.3-0.7,0.1-0.6C222,148.4,222.2,148.4,222.4,148.4z M219.8,148.2
			c0.4,0.1,0.4,0.6,0,0.6c-0.2,0-0.4,0-0.6,0c-0.4-0.1-0.3-0.7,0.1-0.6L219.8,148.2z M217.3,148c0.4,0.1,0.3,0.7-0.1,0.6
			c-0.2,0-0.4-0.1-0.6-0.1c-0.4-0.1-0.3-0.7,0.1-0.6C216.9,147.9,217.1,148,217.3,148z M214.9,147.5c0.4,0.1,0.3,0.7-0.2,0.6
			c-0.2-0.1-0.4-0.1-0.6-0.2c-0.4-0.1-0.3-0.7,0.2-0.6C214.5,147.5,214.7,147.5,214.9,147.5z M212.5,146.8c0.4,0.2,0.1,0.8-0.3,0.6
			c-0.2-0.1-0.4-0.2-0.6-0.3c-0.4-0.2-0.1-0.8,0.3-0.6C212.1,146.6,212.4,146.7,212.5,146.8z M210.5,145.5c0.3,0.3-0.1,0.8-0.4,0.4
			c-0.2-0.2-0.3-0.3-0.4-0.5c-0.3-0.3,0.2-0.7,0.5-0.4C210.2,145.2,210.4,145.3,210.5,145.5z M209.4,143.4c0.1,0.4-0.5,0.6-0.6,0.1
			c-0.1-0.2-0.1-0.4-0.1-0.7c0-0.4,0.6-0.4,0.6,0C209.3,143,209.3,143.2,209.4,143.4z M209.5,141.1c-0.1,0.4-0.7,0.3-0.6-0.2
			c0.1-0.2,0.1-0.4,0.2-0.6c0.1-0.4,0.8-0.2,0.6,0.2C209.7,140.7,209.6,140.9,209.5,141.1z M210.5,138.8c-0.2,0.4-0.8,0.1-0.6-0.3
			c0.1-0.2,0.2-0.4,0.3-0.6c0.2-0.3,0.8-0.1,0.5,0.3C210.7,138.4,210.6,138.7,210.5,138.8z M211.9,136.8c-0.3,0.3-0.8-0.1-0.5-0.4
			c0.1-0.2,0.3-0.3,0.4-0.5c0.2-0.3,0.8,0.1,0.5,0.4C212.2,136.4,212,136.6,211.9,136.8z M213.6,134.9c-0.3,0.3-0.8-0.1-0.4-0.4
			c0.1-0.1,0.3-0.3,0.5-0.4c0.3-0.3,0.8,0.1,0.4,0.5C213.9,134.6,213.7,134.8,213.6,134.9z M215.5,133.2c-0.3,0.3-0.7-0.2-0.4-0.5
			l0.5-0.4c0.3-0.3,0.7,0.2,0.4,0.5C215.8,133,215.6,133.1,215.5,133.2z"/>
	</g>
</g>
</svg>
